PathFileType	4	(X/Y/Z)	C:/Users/beibeiliu/ov580/test_trc\sequence.21_training_dense_left.trc
DataRate	CameraRate	NumFrames	NumMarkers	Units	OrigDataRate	OrigDataStartFrame	OrigNumFrames
120	120	9	19	mm	120	249	397
Frame#	Time	ThumbCMC			ThumbMCP			ThumbIP			ThumbTip			IndexMCP			IndexPIP			IndexTip			MiddleMCP			MiddlePIP			MiddleTip			RingMCP			RingPIP			RingTip			PinkyMCP			PinkyPIP			PinkyTip			BackHand1			BackHand2			BackHand3	
		X0	Y0	Z0	X1	Y1	Z1	X2	Y2	Z2	X3	Y3	Z3	X4	Y4	Z4	X5	Y5	Z5	X6	Y6	Z6	X7	Y7	Z7	X8	Y8	Z8	X9	Y9	Z9	X10	Y10	Z10	X11	Y11	Z11	X12	Y12	Z12	X13	Y13	Z13	X14	Y14	Z14	X15	Y15	Z15	X16	Y16	Z16	X17	Y17	Z17	X18	Y18	Z18	
248	2.06667	-209.439	38.3663	10.5082	-189.17	33.7141	-12.4816	-184.807	17.7721	-30.4942	-189.965	-7.83239	-38.9632	-222.159	32.3831	-51.8296	-217.646	35.8741	-75.3072	-214.705	34.8079	-97.8442	-232.959	8.67929	-57.5234	-228.599	9.54359	-83.7664	-226.483	4.17372	-105.251	-235.634	-9.60497	-48.5511	-231.634	-14.4922	-71.86	-228.893	-19.9623	-90.1054	-236.716	-29.3832	-33.4986	-232.333	-38.2092	-51.0066	-231.843	-49.259	-69.3178	-245.594	2.07925	-9.4547	-251.807	7.6462	17.0174	-239.656	26.3329	3.38663	
249	2.075	-210.174	37.5031	9.95981	-189.294	33.6314	-13.1682	-185.799	15.7855	-34.1356	-187.102	-6.79952	-40.7826	-223.864	33.9982	-54.2364	-219.625	36.0961	-72.3103	-215.206	39.0746	-94.7718	-232.391	10.486	-55.6976	-230.467	7.44266	-80.1586	-228.339	2.13057	-106.159	-235.965	-10.5699	-48.4518	-232.759	-15.7775	-73.3275	-228.974	-21.105	-94.6725	-236.491	-28.9567	-35.9222	-232.866	-38.3354	-49.8099	-232.416	-46.9195	-67.6006	-248.751	-2.24495	-7.4132	-249.076	4.54002	18.5798	-240.855	28.3278	5.39846	
250	2.08333	-211.369	32.4465	11.4846	-187.659	32.1667	-12.8782	-186.159	15.036	-32.727	-187.966	-4.77428	-39.773	-222.726	37.5541	-49.924	-221.641	35.2436	-71.2409	-217.32	39.6762	-98.3403	-233.505	10.5192	-59.3074	-229.393	11.1696	-80.9119	-229.017	5.52538	-103.705	-235.168	-7.87856	-48.0379	-233.816	-17.2177	-70.7156	-230.133	-18.754	-90.4854	-236.103	-27.1199	-34.4224	-232.179	-36.9307	-51.066	-232.66	-43.435	-67.0488	-246.758	1.85822	-5.63905	-248.588	3.89943	20.0596	-239.718	24.6084	6.5052	
251	2.09167	-207.507	34.4037	15.4926	-186.341	31.7602	-9.64647	-185.42	15.1749	-31.223	-191.996	-6.80742	-39.9262	-222.957	35.9437	-50.6413	-220.156	38.0728	-71.9309	-216.525	41.7564	-92.6106	-232.023	14.0257	-56.8405	-230.914	11.095	-78.6482	-228.997	9.10067	-103.679	-236.79	-8.18666	-50.5595	-233.978	-11.4152	-70.839	-231.001	-17.5065	-92.0847	-235.186	-26.0207	-33.7223	-233.408	-34.4798	-51.4587	-233.45	-40.8938	-72.0562	-245.862	2.20976	-6.94041	-249.239	3.15649	21.3407	-241.285	22.9567	6.02359	
252	2.1	-207.25	30.3689	15.8826	-186.116	30.8606	-14.4102	-184.084	16.3414	-32.2566	-189.53	-7.49532	-42.5753	-221.549	37.3287	-46.2779	-220.136	38.1132	-73.2569	-217.851	42.9736	-94.8357	-233.236	14.0726	-57.6806	-230.565	15.3852	-78.4484	-228.969	13.5929	-107.647	-236.398	-6.15739	-49.423	-234.165	-9.17659	-68.7451	-233.159	-15.3178	-89.8433	-237.608	-29.9285	-36.747	-232.757	-32.4549	-56.6285	-233.206	-37.7325	-73.5785	-243.797	1.35439	-4.3194	-248.154	3.21522	21.0896	-238.759	25.101	7.05653	
253	2.10833	-201.808	31.9646	17.4469	-185.314	28.0291	-11.5016	-183.07	15.1451	-34.6152	-189.352	-8.67767	-45.9167	-222.138	35.4954	-49.6406	-217.962	41.5986	-67.9181	-215.717	47.8953	-90.1044	-232.034	16.5746	-57.6798	-231.087	18.3994	-77.0095	-229.362	15.215	-104.154	-237.293	-6.56597	-52.1135	-236.205	-10.1116	-71.0761	-233.766	-12.3718	-94.5883	-238.81	-27.2341	-37.4074	-235.212	-31.93	-57.0619	-238.44	-37.7543	-71.3878	-245.025	1.12712	-7.4825	-247.787	1.83285	18.3727	-233.487	26.4981	6.26003	
254	2.11667	-202.66	29.2331	12.3567	-181.9	28.0227	-14.0806	-182.448	14.6347	-33.7009	-192.755	-9.80371	-45.828	-217.983	38.9806	-46.3144	-215.666	44.469	-68.4086	-214.08	49.8803	-92.7677	-232.829	16.1132	-52.7616	-231.77	19.3193	-77.4982	-230.17	18.6041	-107.824	-237.622	-4.09556	-48.9754	-235.77	-5.18952	-74.1858	-234.347	-10.1542	-94.8711	-239.718	-26.7095	-36.6411	-236.83	-27.9408	-55.4167	-238.71	-33.3655	-74.9891	-243.081	3.56109	-6.64651	-243.533	2.78339	19.5782	-232.092	26.0087	9.20757	
255	2.125	-201.163	26.7684	12.9115	-181.941	26.9094	-11.6186	-181.555	14.8456	-34.4332	-193.571	-8.28225	-45.6029	-217.905	39.4508	-44.9737	-216.597	44.263	-69.8699	-215.487	49.2445	-88.9062	-230.09	22.1478	-54.8109	-232.131	19.4484	-76.1237	-231.837	19.3171	-104.176	-236.626	0.396532	-48.5003	-237.519	-5.07017	-73.8773	-234.831	-4.34027	-95.8001	-240.817	-22.1879	-40.0889	-239.422	-28.7874	-54.1299	-240.8	-32.3942	-76.0051	-241.445	3.85336	-5.74355	-242.932	3.41447	20.655	-232.759	23.6589	10.6994	
256	2.13333	-197.499	27.3187	17.2178	-179.311	26.6625	-11.9721	-184.872	14.2517	-33.2117	-193.406	-7.54701	-48.9701	-214.463	40.9441	-42.3896	-212.401	49.2496	-68.4053	-213.405	52.9245	-89.4456	-232.127	19.1407	-52.2911	-232.619	23.0832	-75.8922	-232.079	24.6001	-101.253	-236.414	2.16631	-51.5185	-237.851	-1.07487	-71.9247	-234.926	-2.16527	-93.3042	-241.504	-20.2835	-38.162	-239.491	-20.3514	-56.6416	-241.038	-25.1246	-74.4966	-241.082	3.32079	-5.82012	-243.491	3.90797	21.3974	-232.189	23.1721	11.238	
